<svg xmlns="http://www.w3.org/2000/svg" version="1.1" xmlns:xlink="http://www.w3.org/1999/xlink" xmlns:svgjs="http://svgjs.dev/svgjs" width="1000" height="750" viewBox="0 0 1000 750"><rect width="1000" height="750" fill="#ee3e38"></rect><g transform="matrix(0.834,0,0,0.834,82.49454545454546,115.4193570850203)"><svg viewBox="0 0 396 247" data-background-color="#ee3e38" preserveAspectRatio="xMidYMid meet" height="623" width="1000" xmlns="http://www.w3.org/2000/svg" xmlns:xlink="http://www.w3.org/1999/xlink"><g id="tight-bounds" transform="matrix(1,0,0,1,0.2400000000000091,-0.09999999999999432)"><svg viewBox="0 0 395.52 247.2" height="247.2" width="395.52"><g><svg></svg></g><g><svg viewBox="0 0 395.52 247.2" height="247.2" width="395.52"><g transform="matrix(1,0,0,1,99.68565977742448,37.08)"><svg viewBox="0 0 196.14868044515103 173.04" height="173.04" width="196.14868044515103"><g><svg viewBox="0 0 196.14868044515103 173.04" height="173.04" width="196.14868044515103"><g><svg viewBox="0 0 196.14868044515103 173.04" height="173.04" width="196.14868044515103"><g><svg viewBox="0 0 196.14868044515103 173.04" height="173.04" width="196.14868044515103"><g id="textblocktransform"><svg viewBox="0 0 196.14868044515103 173.04" height="173.04" width="196.14868044515103" id="textblock"><g><svg viewBox="0 0 196.14868044515103 173.04" height="173.04" width="196.14868044515103"><g transform="matrix(1,0,0,1,0,0)"><svg width="196.14868044515103" viewBox="-1.2470588684082031 -33.29999923706055 37.7470588684082 33.29999923706055" height="173.04" data-palette-color="#ffffff"><path d="M32.6-33.3Q34.45-33.3 35.48-32.5 36.5-31.7 36.5-30.3L36.5-30.3Q36.5-29.6 36.3-28.95L36.3-28.95 35-24.3Q34.65-23 33.85-22.45 33.05-21.9 31.75-21.9L31.75-21.9Q30.5-21.9 29.75-22.43 29-22.95 28.65-24.15L28.65-24.15 27.85-27Q27.65-27.75 27.35-28 27.05-28.25 26.1-28.25L26.1-28.25 21.1-28.25 18.3-18.35 19.25-18.35Q19.95-18.35 20.48-18.55 21-18.75 21.6-19.3L21.6-19.3 23.15-20.6Q24-21.35 24.68-21.68 25.35-22 26.1-22L26.1-22Q27.05-22 27.68-21.45 28.3-20.9 28.3-19.9L28.3-19.9Q28.3-19.5 28.15-18.95L28.15-18.95 25.95-11.35Q25.2-8.9 23.25-8.9L23.25-8.9Q21.65-8.9 20.75-10.55L20.75-10.55 19.85-12.25Q19.5-12.95 19.2-13.15 18.9-13.35 18.3-13.35L18.3-13.35 16.85-13.35 14.75-5.9Q14.65-5.6 14.65-5.1L14.65-5.1Q14.65-4.4 14.98-3.95 15.3-3.5 15.95-3L15.95-3Q16.5-2.55 16.7-2.27 16.9-2 16.9-1.6L16.9-1.6Q16.9-0.7 16.1-0.35 15.3 0 13.75 0L13.75 0 1.2 0Q-0.1 0-0.75-0.48-1.4-0.95-1.2-1.8L-1.2-1.8Q-1.1-2.25-0.83-2.53-0.55-2.8 0-3.15L0-3.15Q0.85-3.65 1.35-4.2 1.85-4.75 2.15-5.9L2.15-5.9 8.3-27.45Q8.5-28.1 8.5-28.65L8.5-28.65Q8.5-29.25 8.33-29.65 8.15-30.05 7.8-30.5L7.8-30.5Q7.35-31.15 7.35-31.55L7.35-31.55Q7.35-31.7 7.45-32.1L7.45-32.1Q7.65-32.75 8.35-33.02 9.05-33.3 10.4-33.3L10.4-33.3 32.6-33.3Z" opacity="1" transform="matrix(1,0,0,1,0,0)" fill="#ffffff" class="undefined-text-0" data-fill-palette-color="primary" id="text-0"></path></svg></g></svg></g></svg></g></svg></g></svg></g></svg></g></svg></g><g mask="url(#c975dcb0-8132-401b-9fc3-1eabf12e94c5)"><g transform="matrix(7.381983826126263, 0, 0, 7.381983826126263, 21.976510140368333, 1)"><svg xmlns="http://www.w3.org/2000/svg" xmlns:xlink="http://www.w3.org/1999/xlink" version="1.1" x="0" y="0" viewBox="1.0119999647140503 8.211999893188477 47.625 33.21600341796875" enable-background="new 0 0 50 50" xml:space="preserve" height="33.21600341796875" width="47.625" class="icon-none" data-fill-palette-color="accent" id="none"><g fill="#ffffff" data-fill-palette-color="accent"><polygon fill="#ffffff" points="19.937,10.508 17.653,8.212 1.012,24.792 17.647,41.428 19.94,39.135 5.603,24.794  " data-fill-palette-color="accent"></polygon><polygon fill="#ffffff" points="29.714,10.508 44.046,24.794 29.711,39.135 32.004,41.428 48.637,24.792 32.001,8.212  " data-fill-palette-color="accent"></polygon></g></svg></g></g></svg></g><defs><mask id="c975dcb0-8132-401b-9fc3-1eabf12e94c5"><rect width="640" height="400" fill="white"></rect><rect width="215.76354848966616" height="254.74118208" fill="black" y="-3.7705910399999993" x="89.87822575516691" id="transform-me"></rect></mask></defs></svg><rect width="395.52" height="247.2" fill="none" stroke="none" visibility="hidden"></rect></g></svg></g></svg>